<svg width="320" height="220" viewBox="0 0 320 220" fill="none" xmlns="http://www.w3.org/2000/svg">
  <defs>
    <linearGradient id="fanBody" x1="88" y1="54" x2="214" y2="146" gradientUnits="userSpaceOnUse">
      <stop stop-color="#1F2937"/>
      <stop offset="1" stop-color="#111827"/>
    </linearGradient>
    <linearGradient id="fanBlade" x1="120" y1="84" x2="190" y2="136" gradientUnits="userSpaceOnUse">
      <stop stop-color="#67E8F9"/>
      <stop offset="1" stop-color="#2563EB"/>
    </linearGradient>
  </defs>
  <ellipse cx="160" cy="188" rx="86" ry="13" fill="#0F172A" fill-opacity="0.16"/>
  <polygon points="88,54 214,54 236,72 110,72" fill="#374151"/>
  <polygon points="88,146 214,146 236,164 110,164" fill="url(#fanBody)"/>
  <polygon points="88,54 110,72 110,164 88,146" fill="#0F172A"/>
  <polygon points="214,54 236,72 236,164 214,146" fill="#4B5563"/>
  <rect x="111" y="72" width="104" height="74" rx="8" fill="#0B1220"/>
  <circle cx="163" cy="109" r="28" fill="#1E293B"/>
  <circle cx="163" cy="109" r="23" fill="#334155"/>
  <path d="M163 87c8 0 10 8 8 13-2 5-8 8-13 6-5-2-8-8-6-13 2-4 6-6 11-6z" fill="url(#fanBlade)"/>
  <path d="M185 109c0 8-8 10-13 8-5-2-8-8-6-13 2-5 8-8 13-6 4 2 6 6 6 11z" fill="url(#fanBlade)"/>
  <path d="M163 131c-8 0-10-8-8-13 2-5 8-8 13-6 5 2 8 8 6 13-2 4-6 6-11 6z" fill="url(#fanBlade)"/>
  <path d="M141 109c0-8 8-10 13-8 5 2 8 8 6 13-2 5-8 8-13 6-4-2-6-6-6-11z" fill="url(#fanBlade)"/>
  <circle cx="163" cy="109" r="5" fill="#E2E8F0"/>
</svg>
