<svg width="320" height="220" viewBox="0 0 320 220" fill="none" xmlns="http://www.w3.org/2000/svg">
  <defs>
    <linearGradient id="ramTop" x1="58" y1="86" x2="220" y2="86" gradientUnits="userSpaceOnUse">
      <stop stop-color="#111827"/>
      <stop offset="1" stop-color="#4B5563"/>
    </linearGradient>
    <linearGradient id="ramFront" x1="58" y1="112" x2="220" y2="148" gradientUnits="userSpaceOnUse">
      <stop stop-color="#1F2937"/>
      <stop offset="1" stop-color="#374151"/>
    </linearGradient>
  </defs>
  <ellipse cx="156" cy="186" rx="94" ry="13" fill="#0F172A" fill-opacity="0.15"/>
  <polygon points="58,86 220,86 246,104 84,104" fill="url(#ramTop)"/>
  <polygon points="58,112 220,112 246,130 84,130" fill="url(#ramFront)"/>
  <polygon points="58,86 84,104 84,130 58,112" fill="#0F172A"/>
  <polygon points="220,86 246,104 246,130 220,112" fill="#1F2937"/>
  <rect x="74" y="92" width="130" height="8" rx="3" fill="#A855F7"/>
  <rect x="78" y="116" width="150" height="9" rx="3" fill="#22D3EE"/>
  <rect x="92" y="95" width="10" height="18" rx="2" fill="#6B7280"/>
  <rect x="106" y="95" width="10" height="18" rx="2" fill="#6B7280"/>
  <rect x="120" y="95" width="10" height="18" rx="2" fill="#6B7280"/>
  <rect x="134" y="95" width="10" height="18" rx="2" fill="#6B7280"/>
  <rect x="148" y="95" width="10" height="18" rx="2" fill="#6B7280"/>
  <rect x="162" y="95" width="10" height="18" rx="2" fill="#6B7280"/>
  <rect x="176" y="95" width="10" height="18" rx="2" fill="#6B7280"/>
</svg>
