<svg width="320" height="220" viewBox="0 0 320 220" fill="none" xmlns="http://www.w3.org/2000/svg">
  <defs>
    <linearGradient id="ssdTop" x1="78" y1="52" x2="218" y2="132" gradientUnits="userSpaceOnUse">
      <stop stop-color="#1F2937"/>
      <stop offset="1" stop-color="#374151"/>
    </linearGradient>
    <linearGradient id="ssdFront" x1="78" y1="132" x2="218" y2="168" gradientUnits="userSpaceOnUse">
      <stop stop-color="#0F172A"/>
      <stop offset="1" stop-color="#1E293B"/>
    </linearGradient>
  </defs>
  <ellipse cx="156" cy="188" rx="88" ry="13" fill="#0F172A" fill-opacity="0.16"/>
  <polygon points="78,52 218,52 248,82 108,82" fill="url(#ssdTop)"/>
  <polygon points="78,132 218,132 248,162 108,162" fill="url(#ssdFront)"/>
  <polygon points="78,52 108,82 108,162 78,132" fill="#111827"/>
  <polygon points="218,52 248,82 248,162 218,132" fill="#334155"/>
  <rect x="124" y="92" width="86" height="46" rx="6" fill="#0B1220"/>
  <rect x="131" y="99" width="24" height="30" rx="4" fill="#475569"/>
  <rect x="160" y="99" width="43" height="8" rx="3" fill="#64748B"/>
  <rect x="160" y="112" width="35" height="6" rx="3" fill="#475569"/>
  <rect x="160" y="121" width="26" height="6" rx="3" fill="#334155"/>
</svg>
